# xmcd
#
# Track frame offsets: 
#        183
#        21098
#        37175
#        58700
#        82983
#        103758
#        125005
#        148013
#
# Disc length: 2248 seconds
#
# Revision: 1
# Processed by: cddbd v1.4PL0 Copyright (c) Steve Scherf et al.
# Submitted via: ExactAudioCopy v0.90b4
#
DISCID=6e08c608
DTITLE=Amedeo Minghi - 1950
DYEAR=1983
DGENRE=Blues
TTITLE0=1950
TTITLE1=Sottomarino
TTITLE2=La casa lungo il Tevere
TTITLE3=Rapidi movimenti degli occhi (R.E.M.)
TTITLE4=St Michel
TTITLE5=Ladri di sole
TTITLE6=Ciaccona
TTITLE7=Flash back
EXTD=ID3G: 0
EXTT0=
EXTT1=
EXTT2=
EXTT3=
EXTT4=
EXTT5=
EXTT6=
EXTT7=
PLAYORDER=
